# xmcd CD database file
# Copyright (C) 1993-1998 Ti Kan
#
# Track frame offsets:
#	182
#	18232
#	35925
#	49757
#	65237
#	79950
#	92647
#	109942
#	125840
#	141337
#	153905
#	171175
#	184240
#	200942
#
# Disc length: 2884 seconds
#
# Revision: 2
# Processed by: cddbd v1.4b41PL1 Copyright (c) Steve Scherf et al.
# Submitted via: CDValet v3.31 - Copyright (c) 1997 Greg Leichner
#
DISCID=d70b420e
DTITLE=Banda Brasil - Banda Brasil
DYEAR=1900
DGENRE=
TTITLE0=Olha Pra Mim
TTITLE1=Calabresa
TTITLE2=Pobre do Meu Coracao
TTITLE3=Dor de Cotovelo
TTITLE4=Video Cassete
TTITLE5=Volta
TTITLE6=Tarde Demais
TTITLE7=Esqueceu de Mim
TTITLE8=Olha Amor
TTITLE9=Gandaia
TTITLE10=Olhos Vermelhos
TTITLE11=Nao Va Embora
TTITLE12=Segura Essa
TTITLE13=Estou Ai
EXTD=
EXTT0=
EXTT1=
EXTT2=
EXTT3=
EXTT4=
EXTT5=
EXTT6=
EXTT7=
EXTT8=
EXTT9=
EXTT10=
EXTT11=
EXTT12=
EXTT13=
PLAYORDER=
